# xmcd
#
# Track frame offsets:
#	150
#	24375
#	39854
#	65487
#	87941
#	110511
#	132626
#	157379
#	182744
#	183238
#	193193
#	223764
#
# Disc length: 3380 seconds
#
# Revision: 0
# Processed by: cddbd v1.4PL0 Copyright (c) Steve Scherf et al.
# Submitted via: dBpowerAMP V4.0
#
DISCID=af0d320c
DTITLE=The clients - funk society
DYEAR=1900
DGENRE=
TTITLE0=dr. Watson
TTITLE1=wonderbrass
TTITLE2=lead sheep
TTITLE3=no promis
TTITLE4=silent road
TTITLE5=do you wanna live free
TTITLE6=morning troubles
TTITLE7=riptide
TTITLE8=clients cookin'club
TTITLE9=times
TTITLE10=homeless
TTITLE11=zusatztrack
EXTD=
EXTT0=
EXTT1=
EXTT2=
EXTT3=
EXTT4=
EXTT5=
EXTT6=
EXTT7=
EXTT8=
EXTT9=
EXTT10=
EXTT11=
PLAYORDER=
